<svg xmlns="http://www.w3.org/2000/svg" width="256" height="256" viewBox="0 0 100 100">
  <!-- generated from src/pieces.gd by 'make chess-pieces-repo' — delete this line once you have edited this file -->
  <rect x="0" y="0" width="100" height="100" rx="16" ry="16" fill="#19233c"/>
  <path d="M 35.62 72.92 C 39.21 67.53 45.51 59.44 51.80 51.35 C 44.61 55.84 35.62 61.24 29.33 63.03 C 23.03 63.93 17.64 63.03 15.84 58.54 C 17.64 47.75 22.13 36.07 28.43 25.28 L 24.83 17.19 L 33.82 24.38 C 38.31 18.99 42.81 16.29 47.30 16.29 C 58.09 18.99 67.98 27.98 74.27 39.66 C 78.76 48.65 80.56 61.24 76.97 69.33 C 76.07 71.12 73.37 72.92 71.57 72.92 Z" fill="#f6f9fa" stroke="#19233c" stroke-width="2.6" stroke-linejoin="round"/>
  <path d="M 28.43 72.92 L 71.57 72.92 C 71.57 76.52 74.27 79.21 78.76 81.01 C 81.46 82.81 82.36 85.51 82.36 89.10 L 17.64 89.10 C 17.64 85.51 18.54 82.81 21.24 81.01 C 25.73 79.21 28.43 76.52 28.43 72.92 Z" fill="#f6f9fa" stroke="#19233c" stroke-width="2.6" stroke-linejoin="round"/>
  <path d="M 60.79 32.47 L 70.67 35.17" fill="none" stroke="#19233c" stroke-width="2.6" stroke-linecap="round" stroke-linejoin="round"/>
  <path d="M 59.89 41.46 L 76.07 43.26" fill="none" stroke="#19233c" stroke-width="2.6" stroke-linecap="round" stroke-linejoin="round"/>
  <path d="M 58.09 50.45 L 78.76 51.35" fill="none" stroke="#19233c" stroke-width="2.6" stroke-linecap="round" stroke-linejoin="round"/>
  <path d="M 56.29 59.44 L 77.87 59.44" fill="none" stroke="#19233c" stroke-width="2.6" stroke-linecap="round" stroke-linejoin="round"/>
  <path d="M 54.49 67.53 L 75.17 67.53" fill="none" stroke="#19233c" stroke-width="2.6" stroke-linecap="round" stroke-linejoin="round"/>
  <path d="M 16.74 56.74 C 20.34 59.44 24.83 61.24 29.33 61.24" fill="none" stroke="#19233c" stroke-width="2.6" stroke-linecap="round" stroke-linejoin="round"/>
  <circle cx="29.33" cy="36.97" r="2.70" fill="#19233c"/>
  <circle cx="19.44" cy="54.94" r="1.44" fill="#19233c"/>
</svg>
